<svg width="45" height="45" viewBox="0 0 45 45" fill="none" xmlns="http://www.w3.org/2000/svg">
<path d="M22.708 44.553C34.99 44.553 44.9465 34.5965 44.9465 22.3145C44.9465 10.0325 34.99 0.0760498 22.708 0.0760498C10.4261 0.0760498 0.469543 10.0325 0.469543 22.3145C0.469543 34.5965 10.4261 44.553 22.708 44.553Z" fill="#FAFAFA"/>
<path fill-rule="evenodd" clip-rule="evenodd" d="M27.1814 13.5258L27.294 13.5305L27.4042 13.5374L27.5144 13.5467L27.6246 13.5595L27.7325 13.5745L27.8404 13.5919L27.9471 13.6128L28.0539 13.636L28.1583 13.6616L28.2627 13.6894L28.3659 13.7207L28.4669 13.7532L28.5678 13.7892L28.6676 13.8274L28.7662 13.8669L28.8636 13.9098L28.9588 13.9551L29.0539 14.0015L29.1467 14.0514L29.2395 14.1024L29.33 14.1558L29.4193 14.2115L29.5064 14.2695L29.5934 14.3298L29.6781 14.3913L29.7616 14.4551L29.8428 14.5212L29.9228 14.5885L30.0006 14.6581L30.0771 14.7289L30.1525 14.802L30.2256 14.8774L30.2964 14.9539L30.366 15.0317L30.4345 15.1117L30.4994 15.1941L30.5632 15.2765L30.6247 15.3612L30.6851 15.4482L30.7431 15.5352L30.7987 15.6245L30.8521 15.715L30.9032 15.8078L30.953 15.9006L30.9995 15.9958L31.0447 16.0909L31.0876 16.1883L31.1282 16.287L31.1653 16.3867L31.2013 16.4876L31.2338 16.5897L31.2651 16.6918L31.293 16.7962L31.3185 16.9007L31.3417 17.0074L31.3626 17.1141L31.38 17.222L31.3951 17.3299L31.4078 17.4401L31.4171 17.5503L31.4252 17.6617L31.4287 17.7731L31.4299 17.8856V26.6075L31.4287 26.72L31.4252 26.8326L31.4171 26.9428L31.4078 27.0541L31.3951 27.1632L31.38 27.2723L31.3626 27.379L31.3417 27.4869L31.3185 27.5925L31.293 27.6969L31.2651 27.8013L31.2338 27.9045L31.2013 28.0066L31.1653 28.1064L31.1282 28.2062L31.0876 28.3048L31.0447 28.4022L30.9995 28.4985L30.953 28.5925L30.9032 28.6865L30.8521 28.7781L30.7987 28.8686L30.7431 28.958L30.6851 29.0461L30.6247 29.132L30.5632 29.2167L30.4994 29.3002L30.4345 29.3814L30.366 29.4614L30.2964 29.5392L30.2256 29.6157L30.1525 29.6911L30.0771 29.7642L30.0006 29.8362L29.9228 29.9046L29.8428 29.9731L29.7616 30.038L29.6781 30.1018L29.5934 30.1645L29.5064 30.2237L29.4193 30.2817L29.33 30.3374L29.2395 30.3907L29.1467 30.4429L29.0539 30.4916L28.9588 30.5392L28.8636 30.5833L28.7662 30.6262L28.6676 30.6668L28.5678 30.7039L28.4669 30.7399L28.3659 30.7724L28.2627 30.8037L28.1583 30.8316L28.0539 30.8571L27.9471 30.8803L27.8404 30.9012L27.7325 30.9186L27.6246 30.9337L27.5144 30.9464L27.4042 30.9569L27.294 30.9638L27.1814 30.9673L27.0689 30.9696H18.347L18.2345 30.9673L18.122 30.9638L18.0118 30.9569L17.9015 30.9464L17.7913 30.9337L17.6834 30.9186L17.5755 30.9012L17.4688 30.8803L17.3621 30.8571L17.2577 30.8316L17.1532 30.8037L17.05 30.7724L16.9491 30.7399L16.8481 30.7039L16.7484 30.6668L16.6497 30.6262L16.5523 30.5833L16.4572 30.5392L16.362 30.4916L16.2692 30.4429L16.1764 30.3907L16.0859 30.3374L15.9966 30.2817L15.9096 30.2237L15.8226 30.1645L15.7379 30.1018L15.6544 30.038L15.5731 29.9731L15.4931 29.9046L15.4154 29.8362L15.3388 29.7642L15.2634 29.6911L15.1903 29.6157L15.1195 29.5392L15.0499 29.4614L14.9815 29.3814L14.9165 29.3002L14.8527 29.2167L14.7901 29.132L14.7309 29.0461L14.6729 28.958L14.6172 28.8686L14.5638 28.7781L14.5128 28.6865L14.4629 28.5925L14.4153 28.4985L14.3712 28.4022L14.3283 28.3048L14.2877 28.2062L14.2506 28.1064L14.2146 28.0066L14.1821 27.9045L14.1508 27.8013L14.123 27.6969L14.0975 27.5925L14.0742 27.4869L14.0534 27.379L14.036 27.2723L14.0209 27.1632L14.0081 27.0541L13.9988 26.9428L13.9907 26.8326L13.9872 26.72L13.9861 26.6075V17.8856L13.9872 17.7731L13.9907 17.6617L13.9988 17.5503L14.0081 17.4401L14.0209 17.3299L14.036 17.222L14.0534 17.1141L14.0742 17.0074L14.0975 16.9007L14.123 16.7962L14.1508 16.6918L14.1821 16.5897L14.2146 16.4876L14.2506 16.3867L14.2877 16.287L14.3283 16.1883L14.3712 16.0909L14.4153 15.9958L14.4629 15.9006L14.5128 15.8078L14.5638 15.715L14.6172 15.6245L14.6729 15.5352L14.7309 15.4482L14.7901 15.3612L14.8527 15.2765L14.9165 15.1941L14.9815 15.1117L15.0499 15.0317L15.1195 14.9539L15.1903 14.8774L15.2634 14.802L15.3388 14.7289L15.4154 14.6581L15.4931 14.5885L15.5731 14.5212L15.6544 14.4551L15.7379 14.3913L15.8226 14.3298L15.9096 14.2695L15.9966 14.2115L16.0859 14.1558L16.1764 14.1024L16.2692 14.0514L16.362 14.0015L16.4572 13.9551L16.5523 13.9098L16.6497 13.8669L16.7484 13.8274L16.8481 13.7892L16.9491 13.7532L17.05 13.7207L17.1532 13.6894L17.2577 13.6616L17.3621 13.636L17.4688 13.6128L17.5755 13.5919L17.6834 13.5745L17.7913 13.5595L17.9015 13.5467L18.0118 13.5374L18.122 13.5305L18.2345 13.5258L18.347 13.5247H27.0689L27.1814 13.5258ZM18.3598 15.5305L18.2855 15.5317L18.2241 15.534L18.1637 15.5375L18.1046 15.5433L18.0454 15.5503L17.9862 15.5584L17.9282 15.5676L17.8714 15.5781L17.8145 15.5909L17.7577 15.6048L17.702 15.6199L17.6475 15.6361L17.5918 15.6535L17.5384 15.6732L17.485 15.6929L17.4317 15.715L17.3795 15.7382L17.3284 15.7614L17.2774 15.7869L17.2263 15.8136L17.1776 15.8415L17.1289 15.8705L17.0802 15.9006L17.0326 15.932L16.9862 15.9644L16.9398 15.9981L16.8945 16.0329L16.8505 16.0677L16.8075 16.1048L16.7646 16.1431L16.7228 16.1814L16.6822 16.2208L16.6428 16.2614L16.6033 16.3032L16.5662 16.3461L16.5291 16.389L16.4931 16.4331L16.4595 16.4784L16.4258 16.5248L16.3934 16.5712L16.362 16.6187L16.3319 16.6674L16.3029 16.7162L16.275 16.7661L16.2483 16.816L16.2228 16.867L16.1996 16.918L16.1764 16.9703L16.1544 17.0236L16.1346 17.077L16.1149 17.1315L16.0975 17.1861L16.0813 17.2406L16.0662 17.2963L16.0523 17.3531L16.0395 17.41L16.0291 17.4668L16.0186 17.5248L16.0105 17.584L16.0047 17.6431L15.9989 17.7023L15.9954 17.7626L15.9931 17.8241L15.992 17.8984V26.5947L15.9931 26.6701L15.9954 26.7305L15.9989 26.7908L16.0047 26.8511L16.0105 26.9103L16.0186 26.9683L16.0291 27.0263L16.0395 27.0843L16.0523 27.1412L16.0662 27.1969L16.0813 27.2526L16.0975 27.3082L16.1149 27.3628L16.1346 27.4161L16.1544 27.4695L16.1764 27.5229L16.1996 27.5751L16.2228 27.6261L16.2483 27.6772L16.275 27.7282L16.3029 27.7781L16.3319 27.8268L16.362 27.8744L16.3934 27.9219L16.4258 27.9684L16.4595 28.0147L16.4931 28.06L16.5291 28.1041L16.5662 28.1482L16.6033 28.1899L16.6428 28.2317L16.6822 28.2723L16.7228 28.3118L16.7646 28.3512L16.8075 28.3883L16.8505 28.4254L16.8945 28.4614L16.9398 28.495L16.9862 28.5298L17.0326 28.5623L17.0802 28.5925L17.1277 28.6227L17.1776 28.6517L17.2263 28.6795L17.2774 28.7062L17.3284 28.7317L17.3795 28.7561L17.4317 28.7781L17.485 28.8002L17.5384 28.821L17.5918 28.8396L17.6463 28.857L17.702 28.8733L17.7577 28.8883L17.8145 28.9023L17.8714 28.915L17.9282 28.9255L17.9862 28.9359L18.0454 28.944L18.1046 28.951L18.1637 28.9556L18.2241 28.9591L18.2855 28.9614L18.3598 28.9626H27.0562L27.1304 28.9614L27.1919 28.9591L27.2522 28.9556L27.3114 28.951L27.3705 28.944L27.4297 28.9359L27.4877 28.9255L27.5446 28.915L27.6014 28.9023L27.6583 28.8883L27.714 28.8733L27.7696 28.857L27.8242 28.8396L27.8775 28.821L27.9309 28.8002L27.9843 28.7781L28.0365 28.7561L28.0875 28.7317L28.1386 28.7062L28.1896 28.6795L28.2383 28.6517L28.2882 28.6227L28.3358 28.5925L28.3833 28.5612L28.4297 28.5298L28.4762 28.495L28.5214 28.4614L28.5655 28.4254L28.6084 28.3895L28.6513 28.3512L28.6931 28.3118L28.7337 28.2723L28.7732 28.2317L28.8126 28.1899L28.8497 28.1482L28.8868 28.1041L28.9228 28.06L28.9565 28.0147L28.9901 27.9695L29.0226 27.9219L29.0539 27.8744L29.0841 27.8268L29.1131 27.7781L29.1409 27.7282L29.1676 27.6772L29.1931 27.6261L29.2163 27.5751L29.2395 27.5229L29.2616 27.4695L29.2813 27.4161L29.301 27.3628L29.3184 27.3082L29.3347 27.2526L29.3497 27.1969L29.3637 27.1412L29.3764 27.0843L29.3869 27.0263L29.3973 26.9683L29.4054 26.9103L29.4112 26.8511L29.417 26.7908L29.4205 26.7305L29.4228 26.669L29.424 26.5947V17.8984L29.4228 17.8241L29.4205 17.7626L29.417 17.7023L29.4112 17.6431L29.4054 17.584L29.3973 17.5248L29.3869 17.4668L29.3764 17.41L29.3637 17.3531L29.3497 17.2963L29.3347 17.2406L29.3184 17.1861L29.301 17.1315L29.2813 17.077L29.2616 17.0236L29.2395 16.9703L29.2163 16.918L29.1931 16.867L29.1676 16.816L29.1409 16.7661L29.1131 16.7162L29.0841 16.6674L29.0539 16.6187L29.0226 16.5712L28.9901 16.5248L28.9565 16.4784L28.9228 16.4331L28.8868 16.389L28.8497 16.3461L28.8126 16.3032L28.7732 16.2614L28.7337 16.2208L28.6931 16.1814L28.6513 16.1431L28.6084 16.1048L28.5655 16.0677L28.5214 16.0329L28.4762 15.9981L28.4297 15.9644L28.3833 15.932L28.3358 15.9006L28.2871 15.8705L28.2383 15.8415L28.1896 15.8136L28.1386 15.7869L28.0875 15.7614L28.0365 15.7382L27.9843 15.715L27.9309 15.6929L27.8775 15.6732L27.8242 15.6535L27.7685 15.6361L27.714 15.6199L27.6583 15.6048L27.6014 15.5909L27.5446 15.5781L27.4877 15.5676L27.4297 15.5584L27.3705 15.5503L27.3114 15.5433L27.2522 15.5375L27.1919 15.534L27.1304 15.5317L27.0562 15.5305H18.3598Z" fill="#BABABA"/>
</svg>
